<?xml version="1.0" standalone="no"?>
<!DOCTYPE svg PUBLIC "-//W3C//DTD SVG 20010904//EN"
 "http://www.w3.org/TR/2001/REC-SVG-20010904/DTD/svg10.dtd">
<svg version="1.0" xmlns="http://www.w3.org/2000/svg"
 width="1034.000000pt" height="1034.000000pt" viewBox="0 0 1034.000000 1034.000000"
 preserveAspectRatio="xMidYMid meet">
<metadata>
Created by potrace 1.14, written by Peter Selinger 2001-2017
</metadata>
<g transform="translate(0.000000,1034.000000) scale(0.100000,-0.100000)"
fill="#000000" stroke="none">
<path d="M5504 10297 c6 -26 1 -32 -29 -28 -24 2 -73 -147 -62 -189 3 -11 2
-22 -1 -24 -9 -5 -7 -114 2 -123 3 -3 6 -17 6 -30 0 -16 4 -22 12 -17 8 5 9 2
5 -9 -3 -10 -3 -17 2 -17 9 0 7 -22 -10 -93 -9 -41 -14 -48 -30 -44 -10 3 -22
1 -25 -4 -3 -5 -13 -5 -25 1 -23 13 -87 11 -147 -3 -52 -12 -152 -64 -152 -79
0 -6 -3 -9 -6 -5 -3 3 -27 -16 -53 -41 -90 -90 -160 -150 -165 -144 -3 3 -6
-2 -6 -11 0 -9 -3 -16 -7 -15 -5 1 -64 -53 -133 -120 -68 -67 -128 -122 -133
-122 -4 0 -6 -4 -3 -8 3 -5 -9 -17 -27 -27 -18 -10 -71 -56 -118 -102 -47 -46
-100 -94 -119 -108 -19 -14 -30 -25 -24 -25 5 0 -5 -8 -21 -19 -17 -10 -61
-48 -98 -85 -37 -36 -72 -66 -77 -66 -5 0 -22 -12 -37 -27 -16 -16 -32 -29
-36 -30 -9 -3 -116 -82 -141 -105 -11 -10 -25 -18 -31 -18 -6 0 -32 -20 -58
-44 -27 -24 -46 -37 -43 -29 9 22 -39 -10 -78 -51 -16 -18 -26 -23 -23 -13 4
9 2 17 -3 17 -6 0 -10 -7 -10 -15 0 -8 -5 -15 -10 -15 -6 0 -28 -18 -49 -39
-22 -22 -42 -37 -45 -34 -3 4 -6 1 -6 -5 0 -13 -10 -23 -80 -82 -166 -139
-207 -177 -329 -302 -73 -75 -139 -148 -146 -162 -15 -29 -32 -51 -59 -74 -49
-44 -133 -150 -158 -202 -7 -14 -18 -31 -25 -38 -7 -7 -13 -20 -13 -28 0 -8
-4 -14 -10 -14 -5 0 -10 -7 -10 -15 0 -8 -4 -15 -9 -15 -5 0 -12 -11 -15 -25
-4 -14 -11 -25 -16 -25 -6 0 -10 -8 -10 -18 0 -10 -4 -22 -10 -28 -5 -5 -11
-21 -14 -34 -2 -14 -5 -25 -6 -25 -2 0 -8 -26 -15 -70 -3 -23 -23 -64 -45 -95
-22 -30 -54 -81 -71 -113 -33 -59 -47 -73 -196 -192 -108 -86 -145 -144 -228
-350 -15 -38 -36 -88 -46 -110 -10 -22 -20 -49 -22 -60 -2 -11 -9 -40 -16 -65
-7 -25 -15 -53 -17 -64 -5 -26 -53 -215 -64 -251 -12 -40 -44 -176 -45 -195
-1 -14 -11 -78 -20 -125 -2 -11 -4 -20 -5 -20 -2 0 -5 -16 -13 -55 -3 -14 -15
-57 -27 -95 -12 -39 -23 -90 -25 -115 -2 -25 -6 -63 -10 -85 -22 -148 -26
-379 -8 -463 7 -37 16 -88 18 -115 3 -26 9 -56 15 -66 5 -10 6 -21 3 -25 -3
-3 -1 -6 6 -6 7 0 10 -4 7 -9 -3 -5 1 -22 9 -37 8 -16 15 -33 15 -38 0 -12 90
-167 107 -184 7 -7 13 -19 13 -26 0 -8 7 -19 15 -26 8 -7 15 -19 15 -26 0 -8
11 -26 25 -41 56 -64 163 -201 190 -245 16 -26 32 -45 36 -42 4 2 11 -1 16 -9
4 -7 21 -21 37 -31 16 -10 25 -13 22 -7 -4 6 -2 11 4 11 6 0 13 -7 16 -15 4
-8 16 -15 29 -15 12 0 39 -11 59 -25 20 -14 44 -25 53 -25 20 0 95 -61 124
-101 20 -28 21 -34 9 -72 -7 -23 -15 -55 -17 -72 -3 -28 -3 -28 13 -10 8 11
12 14 8 6 -12 -24 42 21 62 51 l19 27 41 -39 c22 -22 42 -38 45 -35 3 2 25
-16 48 -40 24 -25 49 -45 56 -45 7 0 16 -6 19 -12 3 -7 4 -4 3 7 -2 11 -9 19
-15 17 -7 -1 -11 1 -10 5 1 5 -3 18 -10 31 -12 21 0 33 13 12 4 -6 10 -8 14
-5 5 2 33 -9 62 -25 30 -16 60 -30 68 -30 8 0 23 -7 33 -17 13 -12 18 -13 18
-3 0 9 6 8 19 -4 11 -10 25 -15 30 -11 6 3 14 0 17 -9 3 -8 11 -13 17 -11 15
6 87 -44 101 -69 6 -11 19 -29 29 -40 9 -11 18 -26 18 -33 1 -7 2 -16 3 -20 2
-5 6 -35 11 -68 4 -33 10 -54 13 -46 3 9 9 4 18 -15 11 -23 13 -24 10 -6 -3
14 0 22 7 19 6 -2 11 -12 12 -23 5 -59 20 -110 42 -147 14 -23 22 -34 19 -23
-13 38 -17 106 -6 106 5 0 10 -5 10 -11 0 -5 5 -7 10 -4 6 3 10 1 10 -4 0 -6
5 -10 12 -9 7 2 17 -13 24 -32 6 -19 19 -36 27 -38 14 -3 37 -45 26 -48 -2 0
1 -7 7 -15 7 -8 15 -29 19 -46 3 -18 11 -33 16 -33 6 0 7 -5 3 -12 -5 -8 -2
-9 9 -5 9 3 16 3 15 -1 -5 -15 22 -73 31 -68 5 3 15 -17 21 -45 7 -30 16 -46
20 -39 5 8 9 7 14 -5 9 -24 8 -27 -6 -19 -7 4 -8 3 -4 -5 4 -6 12 -9 17 -6 8
5 14 -16 10 -37 0 -5 4 -8 10 -8 6 0 9 7 5 15 -7 19 11 19 31 0 8 -8 19 -12
25 -9 6 4 8 2 5 -4 -9 -13 2 -42 15 -42 6 0 4 8 -3 18 -13 15 -12 16 4 3 14
-11 15 -17 5 -30 -7 -9 -8 -13 -4 -9 5 4 15 0 23 -10 12 -16 13 -16 7 3 l-6
20 17 -20 c9 -11 22 -18 28 -17 7 2 9 1 5 -3 -8 -8 27 -45 43 -45 5 0 7 5 3
12 -4 7 -3 8 5 4 8 -5 9 -12 2 -20 -7 -8 -3 -12 16 -14 20 -2 24 2 19 16 -5
14 -4 14 9 -2 8 -11 15 -23 15 -28 0 -4 5 -8 10 -8 6 0 3 11 -6 25 -18 27 -29
90 -15 81 5 -3 14 -19 21 -36 7 -16 16 -27 21 -25 4 3 15 -8 24 -24 8 -16 19
-32 24 -36 5 -3 -1 15 -14 39 -13 24 -21 47 -18 50 10 10 33 7 33 -4 0 -5 11
-26 25 -46 14 -20 25 -33 25 -28 0 5 7 -1 15 -13 15 -22 75 -69 75 -59 0 3
-10 15 -22 26 -19 17 -20 20 -4 14 17 -7 17 -6 1 27 l-18 34 22 -19 c11 -11
21 -24 21 -31 0 -12 41 -55 53 -55 3 0 4 10 2 21 -8 43 7 38 61 -20 45 -49
115 -96 151 -102 36 -7 44 -107 30 -399 -4 -74 -7 -135 -8 -135 0 0 -2 -16 -3
-35 -1 -19 -5 -48 -9 -65 -3 -16 -9 -48 -12 -70 -9 -67 -21 -127 -30 -155 -3
-10 -7 -27 -10 -37 -2 -11 -10 -42 -18 -70 -9 -28 -13 -54 -10 -57 3 -3 -3
-18 -13 -33 -20 -29 -24 -57 -24 -156 l0 -57 -46 -28 c-26 -15 -53 -33 -60
-40 -8 -7 -14 -11 -14 -8 0 3 -18 -1 -40 -9 -22 -8 -40 -12 -40 -9 0 2 -14 -3
-31 -12 -40 -20 -207 -28 -228 -11 -12 10 -13 9 -6 -3 7 -12 6 -13 -6 -4 -15
12 -127 13 -146 1 -6 -4 -14 -4 -17 1 -2 4 -19 8 -38 9 -18 1 -27 -1 -20 -3 6
-3 12 -12 12 -20 0 -8 5 -14 11 -14 5 0 7 -4 4 -10 -3 -5 1 -10 9 -10 17 0 40
-36 31 -50 -3 -5 -15 -7 -28 -4 -12 2 -55 5 -94 6 -66 1 -78 -2 -124 -31 -29
-18 -65 -35 -80 -38 -42 -8 -145 -110 -157 -155 -11 -42 0 -58 20 -30 37 52
121 81 104 36 -3 -8 -2 -12 3 -9 5 3 12 1 15 -4 3 -5 -3 -11 -14 -14 -11 -3
-20 -11 -20 -19 0 -11 2 -11 9 1 11 17 72 22 90 7 11 -8 13 -8 8 1 -4 6 -3 14
3 18 5 3 10 0 10 -7 0 -9 3 -9 10 2 8 12 10 12 10 1 0 -9 4 -10 13 -4 20 16
58 23 51 10 -3 -7 2 -3 10 7 16 20 16 20 16 0 1 -18 1 -18 11 -1 9 15 13 16
27 5 12 -10 14 -10 8 0 -4 6 -3 12 3 12 5 0 12 -6 14 -12 4 -8 6 -7 6 4 1 12
9 15 32 14 16 -1 32 1 35 5 2 4 27 8 54 7 28 0 47 -4 44 -9 -3 -5 0 -9 5 -9 6
0 11 6 11 14 0 17 65 26 81 11 9 -7 10 -6 5 3 -5 8 1 12 18 12 34 0 42 -3 38
-15 -1 -5 4 -1 13 9 12 16 17 17 30 6 8 -7 18 -10 22 -6 3 3 1 6 -5 6 -24 0
-11 15 13 16 16 1 23 -2 19 -10 -3 -6 1 -3 9 7 15 18 15 18 20 0 4 -16 5 -16
6 0 0 9 5 17 11 17 5 0 6 -7 3 -17 -4 -11 -3 -14 5 -9 7 4 12 14 12 23 0 11 5
9 20 -8 10 -13 19 -19 20 -12 0 6 -6 14 -12 16 -7 3 -3 6 10 7 12 2 28 3 35 4
6 1 15 -3 19 -9 5 -6 8 -4 8 6 0 16 33 20 47 4 5 -4 2 -5 -4 -1 -9 5 -11 2 -6
-10 4 -11 8 -13 11 -6 2 7 8 9 14 6 5 -4 4 4 -3 17 -11 21 -10 22 3 12 11 -10
17 -10 28 0 10 10 12 9 7 -5 -3 -10 -2 -20 4 -23 5 -4 7 -11 4 -16 -3 -5 1 -6
10 -3 14 6 14 7 -1 18 -15 11 -15 13 0 25 9 8 19 11 23 8 3 -4 13 -1 22 6 14
11 14 10 2 -5 -7 -10 -17 -16 -21 -13 -5 3 -12 0 -16 -6 -4 -7 -3 -9 4 -5 5 3
13 0 15 -6 4 -10 6 -10 6 0 1 6 6 12 12 12 5 0 8 -4 5 -9 -3 -5 1 -12 9 -15
12 -4 13 -2 7 12 -5 9 -8 22 -5 28 4 12 63 6 63 -7 0 -5 -4 -8 -9 -7 -5 2 -9
0 -10 -4 -3 -26 1 -29 13 -12 14 19 15 19 33 0 10 -10 12 -16 6 -12 -7 4 -13
2 -13 -3 0 -6 7 -11 16 -11 10 0 14 -6 11 -14 -4 -10 -1 -13 9 -9 8 3 21 0 29
-7 8 -6 19 -9 25 -5 5 3 10 1 10 -6 0 -8 4 -8 15 1 12 10 15 10 15 -1 0 -11 2
-11 8 -2 4 7 18 11 31 8 38 -7 35 -12 -14 -19 -25 -4 -45 -11 -45 -17 0 -5 -8
-9 -18 -9 -10 0 -28 -7 -40 -16 -13 -9 -33 -17 -45 -19 -31 -4 -111 -37 -119
-49 -4 -6 -10 -8 -13 -4 -4 3 -15 -2 -26 -13 -10 -10 -26 -19 -35 -19 -8 0
-12 -5 -9 -10 3 -6 2 -10 -3 -10 -8 0 -66 -79 -60 -81 22 -6 38 -5 38 2 0 12
79 51 90 44 6 -3 10 -1 10 5 0 6 4 9 9 6 4 -3 16 1 26 8 16 11 21 11 33 -1 11
-11 12 -17 3 -26 -14 -14 -14 -37 0 -37 5 0 7 6 3 13 -6 9 -3 8 9 -1 9 -8 34
-12 59 -11 24 2 50 -1 57 -6 10 -6 12 -4 6 5 -6 10 -4 12 8 7 10 -3 17 -3 17
2 0 4 6 8 13 8 75 4 148 12 156 18 6 3 11 0 11 -7 0 -10 2 -10 9 1 5 8 16 11
25 8 9 -4 16 -1 16 5 0 7 5 6 15 -2 11 -9 15 -9 15 -1 0 8 5 9 19 2 10 -6 20
-9 22 -7 10 10 70 13 75 5 4 -6 10 -6 18 0 7 6 16 8 19 4 4 -3 7 0 7 8 0 11 2
11 10 -1 9 -13 10 -13 10 0 0 13 1 13 10 0 5 -8 10 -10 10 -4 0 5 17 11 38 12
50 4 65 6 79 15 6 4 13 2 15 -3 2 -7 12 -8 28 -2 19 7 28 5 37 -7 11 -13 12
-14 8 -1 -4 13 3 16 37 15 26 0 48 6 56 15 9 10 11 10 6 1 -5 -10 -1 -11 15
-6 16 5 27 1 36 -12 13 -17 14 -16 8 7 -5 24 -5 25 11 5 11 -14 15 -15 14 -5
-2 10 5 15 25 14 15 0 27 3 27 6 0 4 13 5 29 2 16 -2 32 1 35 7 9 14 26 14 26
0 0 -5 -4 -8 -8 -5 -5 3 -9 -1 -9 -8 0 -7 6 -13 13 -13 7 0 11 4 9 8 -3 3 2
12 11 19 11 10 18 10 26 2 7 -7 26 -12 44 -12 20 0 34 -6 38 -16 9 -22 8 -24
-9 -18 -8 4 -15 1 -15 -6 0 -6 4 -9 9 -6 5 3 15 -2 22 -11 12 -15 12 -16 -5
-10 -15 6 -17 5 -8 -6 7 -8 11 -16 9 -18 -1 -2 0 -3 2 -2 2 2 11 -3 19 -10 13
-10 14 -9 8 1 -12 19 20 25 46 8 23 -14 47 -14 193 0 28 2 59 5 69 5 18 0 17
3 -7 24 -14 14 -31 25 -36 25 -25 0 -61 25 -61 42 0 10 4 18 10 18 5 0 7 6 4
13 -3 8 9 21 30 32 19 10 32 23 29 29 -4 5 1 7 10 3 12 -4 14 -2 10 10 -4 11
-2 14 5 9 7 -4 12 -2 12 4 0 6 11 16 25 22 14 6 25 16 25 21 0 6 -3 8 -6 4
-13 -13 -34 23 -34 58 l0 36 27 -26 c15 -14 32 -25 38 -26 5 0 19 -2 29 -4 11
-2 32 3 46 10 15 8 31 11 35 7 5 -4 5 -2 2 4 -4 6 -2 25 2 42 6 21 5 38 -5 56
-8 14 -20 37 -27 50 -7 12 -37 48 -66 79 -79 83 -111 145 -117 225 -3 37 -7
78 -10 92 -6 29 -17 319 -17 470 0 127 18 501 26 540 8 35 19 60 28 60 5 0 18
9 30 21 28 28 35 17 17 -30 -14 -34 -14 -39 -1 -34 12 5 12 0 -1 -32 -24 -56
-13 -53 23 4 17 28 34 51 38 51 4 0 2 -5 -5 -12 -15 -15 -16 -32 -2 -23 15 9
12 -8 -6 -33 -8 -12 -13 -22 -10 -22 3 0 18 19 33 43 15 23 30 44 33 47 3 3
21 35 40 72 19 37 40 70 47 72 8 3 10 -1 6 -11 -4 -11 -2 -14 5 -9 7 4 12 15
13 24 0 11 3 12 6 5 2 -7 9 -13 14 -13 6 0 7 5 4 10 -3 5 -1 10 5 10 6 0 8 5
4 12 -4 7 -3 8 4 4 7 -4 12 -14 12 -23 0 -11 5 -9 21 8 11 13 18 18 14 11 -3
-6 -1 -12 4 -12 6 0 11 7 11 16 0 8 4 13 10 9 5 -3 7 -12 3 -20 -13 -36 9 -10
33 38 27 53 142 214 150 210 41 -22 66 -32 54 -21 -21 18 -22 34 -4 49 11 9
18 9 26 1 20 -20 31 -14 25 13 -3 16 0 24 7 22 6 -2 11 -11 11 -19 0 -8 7 -23
15 -33 8 -10 20 -30 27 -44 10 -23 11 -19 8 31 -5 72 15 70 35 -2 8 -28 17
-50 22 -50 5 0 8 6 6 13 -3 20 13 58 22 52 5 -3 5 -17 -1 -33 -7 -17 -7 -23 0
-17 17 18 25 65 10 65 -9 0 -8 4 3 13 9 6 18 24 22 38 8 34 65 98 67 75 1 -15
3 -23 9 -43 1 -5 7 7 14 26 7 20 22 38 37 43 19 7 22 7 12 -3 -7 -7 -13 -18
-13 -23 0 -43 75 147 79 200 1 5 10 20 22 32 11 13 17 28 13 35 -6 9 -4 9 8
-1 14 -11 19 -9 32 10 12 17 16 18 16 6 0 -23 28 -30 39 -10 9 15 10 13 11 -8
0 -20 2 -22 10 -10 5 8 10 25 10 38 0 12 5 22 10 22 6 0 10 -4 10 -10 0 -18
19 -11 19 8 4 109 9 146 28 188 12 27 24 57 27 68 6 18 7 18 25 2 15 -13 20
-14 23 -4 3 7 13 13 24 13 13 0 19 7 18 23 -1 27 18 24 23 -4 11 -51 11 -69 2
-88 -9 -18 -9 -19 3 -4 7 9 19 25 26 35 7 10 10 13 7 6 -3 -6 3 -14 13 -17 10
-4 23 -16 28 -29 6 -12 9 -16 7 -9 -1 7 6 18 17 24 11 7 20 22 20 33 0 16 2
17 9 5 6 -8 7 -18 4 -24 -3 -5 -1 -6 6 -2 6 4 9 11 6 16 -3 4 4 10 14 13 17 4
18 1 11 -24 -6 -19 -5 -31 3 -35 7 -4 9 -4 6 0 -4 4 2 31 13 59 18 50 26 175
13 198 -4 5 -1 9 5 9 6 0 4 12 -6 31 -8 17 -11 28 -5 25 6 -4 11 -2 11 3 0 18
18 12 23 -6 3 -12 5 -10 6 7 0 14 -6 37 -13 53 -8 15 -10 27 -5 27 5 0 15 -11
21 -25 6 -14 15 -25 20 -25 5 0 6 5 2 12 -4 7 -3 8 4 4 7 -4 12 -15 13 -24 0
-9 3 -12 5 -5 3 6 -2 27 -10 47 -9 21 -11 38 -5 41 5 4 9 2 9 -3 0 -6 7 -12
15 -16 13 -5 14 -2 4 15 -8 16 -8 20 0 14 8 -4 10 1 7 17 -2 13 2 28 9 35 10
10 14 7 20 -14 8 -35 20 -20 17 25 -1 32 0 34 8 15 15 -37 18 -27 7 33 -6 37
-6 59 1 66 9 9 -2 66 -23 123 -6 15 -2 13 16 -7 24 -27 47 -39 33 -17 -3 6 -7
27 -9 47 -2 31 0 34 9 18 6 -10 18 -26 26 -35 8 -9 12 -12 8 -7 -5 6 -8 17 -8
26 0 12 2 12 9 1 7 -11 9 -11 13 0 5 15 2 22 -27 78 -10 19 -13 31 -7 27 15
-9 9 15 -11 44 -9 13 -17 29 -17 35 0 5 4 3 10 -5 5 -8 12 -11 16 -7 4 4 -12
28 -37 53 -32 34 -37 43 -19 34 24 -13 24 -12 10 6 -8 10 -23 26 -32 35 -10 9
-15 19 -11 23 3 3 1 6 -5 6 -6 0 -9 6 -6 14 3 8 14 12 27 9 18 -5 20 -3 10 8
-19 20 -16 33 5 19 9 -7 4 -1 -11 14 -25 23 -26 27 -11 33 9 3 25 1 35 -6 20
-12 26 -2 8 16 -7 7 -2 9 18 7 15 -2 22 -1 16 2 -7 3 -13 10 -13 15 0 6 8 6
19 -1 11 -5 26 -10 33 -10 7 1 -9 12 -35 26 -52 27 -59 42 -12 24 15 -6 30 -8
33 -5 7 6 7 6 -52 36 -43 21 -62 44 -37 44 5 0 13 3 17 7 3 4 -3 6 -14 3 -12
-2 -24 0 -27 6 -4 5 -1 9 6 9 8 0 8 4 -1 15 -7 8 -16 12 -21 9 -5 -3 -9 0 -9
5 0 10 17 15 49 14 19 -1 -2 18 -25 21 -30 5 -28 26 3 26 26 1 27 1 9 15 -10
8 -24 11 -30 8 -7 -5 -7 -2 1 8 10 12 4 13 -39 10 -38 -2 -49 0 -43 9 6 9 -1
10 -26 5 -24 -4 -30 -3 -20 4 13 8 13 12 0 27 -8 10 -9 15 -2 11 6 -4 15 -3
18 3 4 6 15 8 26 5 11 -4 19 -2 19 5 0 6 5 8 10 5 6 -3 10 1 10 9 0 9 -6 16
-12 16 -8 0 -5 7 6 15 11 8 14 15 8 15 -14 0 -16 26 -2 35 5 3 31 8 57 11 28
3 56 13 68 24 26 24 43 26 24 3 -13 -15 -12 -15 9 -2 12 8 17 16 11 18 -6 2
-3 11 8 24 11 13 12 17 3 12 -8 -5 -25 -10 -39 -11 -23 -3 -23 -2 7 16 18 11
32 22 32 25 0 3 -19 -7 -42 -21 -30 -19 -58 -28 -91 -29 -47 -1 -71 10 -48 24
6 4 -1 14 -20 25 -23 14 -28 21 -19 31 6 8 18 11 26 8 8 -3 14 1 14 11 0 9 3
16 8 16 4 0 52 44 107 97 55 53 105 97 110 98 6 0 9 7 7 15 -3 11 0 11 12 0
14 -11 16 -9 16 9 0 12 7 24 15 27 8 4 24 25 35 48 11 22 45 77 75 121 l56 79
-4 116 c-2 76 1 130 10 159 14 49 17 92 6 90 -5 -1 -19 -1 -32 0 l-25 1 22 20
c39 36 54 68 56 119 3 47 7 54 59 105 32 30 57 60 58 68 0 7 2 21 4 30 2 10
-3 40 -10 67 -7 28 -11 52 -8 54 7 7 25 138 24 176 0 18 3 39 6 45 4 6 8 18
10 26 1 8 5 35 8 58 6 42 5 43 -15 37 -71 -23 -108 -2 -60 33 16 12 34 22 39
22 14 0 29 31 25 54 -5 32 -38 54 -77 51 -36 -2 -37 -1 -23 20 9 14 11 27 5
36 -12 20 -11 32 3 23 7 -5 9 -2 5 8 -3 10 1 18 12 21 15 4 18 12 15 43 -3 25
-1 34 4 26 7 -11 11 -10 16 3 3 10 1 24 -5 31 -8 10 -8 14 0 14 6 0 11 5 11
11 0 5 -6 7 -12 3 -10 -6 -10 -4 -2 7 6 8 11 25 12 38 0 13 12 47 25 75 14 28
28 61 32 74 4 13 19 38 34 55 16 18 40 55 55 82 15 28 51 75 80 105 51 53 114
130 131 159 6 11 3 13 -13 9 -27 -7 -28 -1 -3 20 11 10 22 31 24 49 3 17 8 37
12 42 3 6 1 11 -5 11 -6 0 -9 4 -6 9 3 5 -12 26 -35 47 -22 22 -49 59 -60 84
-11 25 -31 56 -44 70 l-25 26 25 47 c13 26 31 67 40 91 19 49 15 63 -37 126
-15 19 -28 42 -28 51 0 15 -28 82 -49 119 -5 8 -15 35 -22 59 -7 24 -19 50
-26 57 -8 8 -10 15 -3 19 7 4 7 12 0 24 -7 14 -5 23 10 36 22 20 18 35 -11 35
-23 0 -24 8 -4 31 14 15 14 18 0 32 -8 9 -15 25 -15 36 0 12 -4 21 -10 21 -5
0 -10 5 -10 11 0 5 5 7 12 3 7 -4 8 -3 4 4 -4 7 -12 12 -17 12 -5 0 -21 11
-35 25 -14 14 -34 25 -45 25 -17 0 -18 3 -7 20 7 11 28 26 48 34 56 23 16 28
-80 11 -47 -9 -107 -20 -135 -24 -27 -5 -54 -10 -60 -11 -5 -1 -18 -2 -28 -1
-15 1 -14 5 10 27 15 15 20 21 11 14 -10 -7 -18 -9 -18 -4 0 4 -5 3 -12 -4 -7
-7 -16 -12 -20 -12 -14 0 56 58 103 85 24 13 38 25 31 25 -7 0 -25 -8 -40 -17
-18 -11 -11 1 23 36 49 53 49 53 20 47 -91 -21 -514 -259 -608 -344 -212 -189
-272 -266 -402 -515 -11 -21 -27 -46 -35 -55 -9 -9 -35 -46 -59 -82 -60 -92
-113 -144 -232 -230 -57 -41 -125 -96 -151 -122 -26 -26 -65 -59 -85 -75 -21
-15 -44 -34 -51 -41 -8 -7 -27 -19 -43 -28 -17 -8 -38 -22 -47 -30 -9 -8 -75
-58 -147 -111 -71 -53 -160 -123 -196 -154 -70 -59 -119 -81 -239 -106 -92
-19 -106 -20 -292 -27 -92 -4 -176 -9 -188 -11 -21 -4 -46 27 -35 45 3 5 8 65
11 132 2 68 6 137 9 153 2 17 7 57 10 90 12 112 67 260 92 250 7 -2 12 -1 12
3 -1 4 0 9 1 12 1 3 3 14 5 25 1 11 5 32 9 48 3 15 8 39 11 53 7 34 47 124 55
124 3 0 21 35 39 78 18 42 50 97 72 122 21 24 39 48 39 53 0 5 7 15 15 24 8 8
12 19 9 25 -4 6 -2 8 3 5 10 -7 28 20 25 36 -1 4 4 6 10 5 7 -2 12 5 12 15 -1
9 2 17 8 17 9 0 34 59 30 73 -1 4 2 7 7 7 7 0 27 57 37 109 2 8 6 26 10 40 4
14 8 33 8 41 1 19 51 15 83 -6 32 -20 40 -18 51 15 13 37 8 208 -8 246 -12 29
-30 123 -31 158 0 9 -4 17 -9 17 -14 0 -2 51 26 106 28 58 38 100 28 123 -4 9
-7 32 -8 51 -1 27 -5 34 -18 32 -12 -2 -18 9 -23 50 -4 29 -12 59 -17 66 -6 6
-7 12 -2 12 5 0 3 4 -5 9 -8 6 -24 6 -38 0 -21 -8 -27 -5 -24 14 2 12 -16 8
-29 -8 -15 -18 -23 -13 -25 15 -1 10 3 16 8 13 5 -3 5 2 -1 13 -5 11 -7 28 -5
39 5 24 5 32 -1 70 -13 79 -21 91 -45 67 -10 -9 -22 -27 -25 -39 -4 -13 -14
-23 -22 -23 -12 0 -12 4 -4 20 6 11 7 20 3 20 -4 0 2 7 13 16 10 8 12 12 4 8
-12 -6 -13 -5 -4 7 9 12 11 34 4 42 -5 6 -7 63 -2 72 9 14 9 38 -1 52 -4 6 -3
14 2 17 7 4 7 15 1 30 -5 13 -6 27 -3 30 4 3 0 6 -7 6 -7 0 -11 3 -7 6 3 4 0
19 -9 35 -8 16 -14 31 -13 35 0 3 -3 9 -7 12 -4 4 -4 1 0 -5 5 -9 -1 -13 -21
-13 -15 0 -34 -4 -42 -9 -20 -13 -37 -4 -38 20 -1 11 -10 28 -20 37 -10 10
-19 23 -21 31 -1 7 -10 20 -19 29 -15 16 -16 15 -9 -11z m-1816 -1837 c-7 -10
-14 -17 -17 -15 -4 4 18 35 25 35 2 0 -1 -9 -8 -20z m-1111 -4955 c0 -8 -7
-15 -15 -15 -12 0 -12 3 -2 15 7 8 13 15 15 15 1 0 2 -7 2 -15z m4878 -213
c-3 -3 -11 0 -18 7 -9 10 -8 11 6 5 10 -3 15 -9 12 -12z m-71 -38 c3 -8 2 -12
-4 -9 -6 3 -10 10 -10 16 0 14 7 11 14 -7z m-3977 -269 c0 -8 -4 -12 -9 -9 -5
3 -6 10 -3 15 9 13 12 11 12 -6z m3800 -50 c0 -8 -4 -12 -9 -9 -5 3 -6 10 -3
15 9 13 12 11 12 -6z m-3733 -41 c3 -8 2 -12 -4 -9 -6 3 -10 10 -10 16 0 14 7
11 14 -7z m3389 -206 c-1 -18 -2 -45 -2 -60 -1 -16 -5 -28 -11 -28 -11 0 -14
88 -4 114 10 25 19 11 17 -26z m-13 -128 c0 -5 -5 -10 -11 -10 -5 0 -7 5 -4
10 3 6 8 10 11 10 2 0 4 -4 4 -10z m-2861 -100 c10 -22 15 -40 10 -40 -5 0 -9
2 -9 4 0 2 -7 20 -15 40 -21 49 -10 46 14 -4z m1021 -65 c0 -7 -7 -18 -14 -25
-8 -6 -25 -28 -36 -48 l-22 -37 44 40 c23 22 59 51 78 64 l35 24 -25 -28 c-25
-27 -25 -27 -2 -21 13 5 22 3 22 -3 0 -6 -5 -11 -11 -11 -5 0 -7 -5 -4 -10 4
-6 12 -4 21 5 9 8 25 20 36 26 20 11 20 10 -2 -27 l-24 -39 24 20 23 20 -13
-25 c-12 -23 -12 -24 3 -11 16 12 18 12 16 -6 0 -3 6 -10 15 -15 14 -8 14 -13
2 -43 -12 -29 -12 -34 0 -39 7 -3 13 -2 12 2 -1 4 6 21 16 37 9 17 15 21 12
10 -5 -17 -3 -16 15 5 13 16 19 19 15 8 -3 -12 -1 -15 10 -11 7 3 14 9 14 14
0 5 5 9 11 9 5 0 3 -10 -5 -22 -18 -25 -21 -42 -6 -33 5 3 7 0 4 -8 -3 -8 0
-18 7 -23 8 -5 11 -2 7 7 -3 8 -2 23 3 34 l8 20 1 -20 c1 -18 1 -19 11 -2 5 9
17 17 25 17 12 0 11 -6 -6 -30 -12 -16 -17 -30 -11 -30 5 0 14 6 18 13 11 18
41 28 48 17 4 -6 1 -10 -4 -10 -6 0 -11 -4 -11 -10 0 -5 7 -10 16 -10 9 0 12
-5 8 -12 -5 -8 0 -7 11 2 10 8 16 10 12 3 -4 -6 -3 -14 3 -18 5 -3 10 1 10 9
0 27 15 18 18 -10 3 -36 11 -47 27 -34 9 7 16 6 26 -6 11 -13 11 -19 0 -37
-12 -20 -11 -20 13 3 l27 24 -16 -37 c-20 -48 -19 -54 5 -26 l19 24 -9 -35
c-6 -19 -10 -35 -10 -35 0 -1 8 -1 19 -1 10 0 17 7 16 16 -1 8 0 9 2 2 3 -7 9
-9 15 -6 7 4 8 2 4 -5 -4 -6 0 -18 8 -27 9 -8 17 -23 17 -32 1 -9 3 -28 6 -42
13 -77 27 -354 24 -480 -6 -268 -6 -340 1 -340 4 0 1 -19 -8 -42 -8 -22 -12
-43 -9 -46 3 -3 -3 -17 -12 -31 -9 -14 -18 -42 -19 -62 -1 -20 -7 -47 -14 -60
-19 -35 -23 -88 -14 -183 4 -44 2 -57 -7 -54 -7 2 -21 -3 -31 -11 -10 -9 -22
-15 -26 -15 -4 1 -18 -3 -32 -8 -14 -5 -33 -12 -42 -14 -10 -2 -28 -6 -40 -10
-13 -3 -34 -7 -48 -10 -14 -3 -33 -7 -42 -10 -18 -5 -107 -5 -168 0 -51 4 -89
-12 -142 -61 -26 -23 -55 -43 -65 -44 -10 0 -27 -3 -38 -6 -48 -12 -101 -8
-135 11 -55 32 -105 88 -64 72 8 -3 13 -2 10 3 -3 5 1 11 8 14 8 3 17 1 20 -6
3 -7 5 -6 4 3 -3 23 12 61 22 55 5 -3 11 4 15 15 4 11 11 18 16 15 5 -4 6 2 2
11 -5 13 -2 16 9 12 8 -4 15 -1 15 8 0 7 -4 11 -8 8 -4 -2 -6 6 -3 18 3 13 8
47 10 77 5 50 28 100 47 101 4 0 11 -9 15 -19 4 -10 28 -42 54 -70 26 -28 42
-51 35 -52 -7 0 -2 -5 11 -11 13 -6 21 -17 18 -24 -3 -7 1 -15 9 -18 10 -3 12
0 9 12 -3 9 1 6 9 -7 10 -17 16 -20 22 -11 6 9 9 9 16 -1 7 -12 9 -11 9 0 0
11 4 9 15 -5 15 -18 15 -18 8 0 -4 13 -3 17 5 12 7 -4 12 -1 12 8 0 9 5 16 10
16 6 0 10 6 10 14 0 19 32 10 60 -16 17 -16 24 -17 36 -7 10 8 12 15 4 23 -5
5 -10 16 -10 23 0 23 -42 73 -80 95 -19 12 -48 35 -65 52 -16 17 -41 40 -55
51 -14 11 -38 38 -55 60 -16 21 -36 46 -45 55 -8 9 -26 32 -40 53 -14 20 -28
37 -33 37 -10 0 -28 46 -33 84 -2 16 -10 39 -19 52 -23 35 -14 194 15 249 20
40 20 40 1 49 -18 8 -19 16 -15 100 4 83 7 120 19 241 7 62 12 94 29 170 20
88 25 116 38 185 12 69 49 149 58 125 5 -14 8 -12 18 9 6 14 17 25 24 24 7 -2
12 2 11 9 -2 7 4 10 12 7 8 -4 15 -12 15 -19z m1049 -1976 c-16 -10 -23 -4
-14 10 3 6 11 8 17 5 6 -4 5 -9 -3 -15z m-344 -159 c3 -5 1 -10 -4 -10 -6 0
-11 5 -11 10 0 6 2 10 4 10 3 0 8 -4 11 -10z m12 -34 c-3 -8 -1 -16 5 -18 5
-2 2 -10 -8 -18 -16 -13 -17 -13 -11 2 3 10 2 20 -4 23 -11 7 -2 25 13 25 5 0
8 -6 5 -14z"/>
<path d="M5039 2333 c-13 -16 -12 -17 4 -4 9 7 17 15 17 17 0 8 -8 3 -21 -13z"/>
<path d="M5136 2274 c-5 -14 -4 -15 9 -4 17 14 19 20 6 20 -5 0 -12 -7 -15
-16z"/>
<path d="M5200 2225 c0 -2 10 -10 23 -16 20 -11 21 -11 8 4 -13 16 -31 23 -31
12z"/>
<path d="M5273 2165 c0 -8 4 -12 9 -9 5 3 6 10 3 15 -9 13 -12 11 -12 -6z"/>
<path d="M5487 2113 c-4 -3 -7 -11 -7 -17 0 -6 5 -5 12 2 6 6 9 14 7 17 -3 3
-9 2 -12 -2z"/>
<path d="M4953 665 c0 -8 4 -15 9 -15 4 0 8 4 8 9 0 6 -4 12 -8 15 -5 3 -9 -1
-9 -9z"/>
<path d="M4830 660 c0 -5 5 -10 10 -10 6 0 10 5 10 10 0 6 -4 10 -10 10 -5 0
-10 -4 -10 -10z"/>
<path d="M4890 661 c0 -6 4 -13 10 -16 6 -3 7 1 4 9 -7 18 -14 21 -14 7z"/>
<path d="M5300 660 c-9 -6 -10 -10 -3 -10 6 0 15 5 18 10 8 12 4 12 -15 0z"/>
<path d="M5347 659 c7 -7 15 -10 18 -7 3 3 -2 9 -12 12 -14 6 -15 5 -6 -5z"/>
<path d="M5409 657 c6 -8 7 -18 3 -22 -4 -5 -1 -5 6 -1 10 6 10 11 1 22 -6 8
-14 14 -16 14 -3 0 0 -6 6 -13z"/>
<path d="M5136 647 c3 -10 9 -15 12 -12 3 3 0 11 -7 18 -10 9 -11 8 -5 -6z"/>
<path d="M5486 638 c3 -5 10 -6 15 -3 13 9 11 12 -6 12 -8 0 -12 -4 -9 -9z"/>
<path d="M4973 627 c0 -7 9 -14 20 -14 11 -1 18 -1 16 0 -2 2 -11 8 -20 15
-12 9 -16 9 -16 -1z"/>
<path d="M4830 616 c4 -4 16 -4 26 2 16 9 14 10 -8 9 -15 -1 -23 -6 -18 -11z"/>
<path d="M4886 618 c3 -4 9 -8 15 -8 5 0 9 4 9 8 0 5 -7 9 -15 9 -8 0 -12 -4
-9 -9z"/>
<path d="M4926 622 c-3 -5 1 -9 9 -9 8 0 12 4 9 9 -3 4 -7 8 -9 8 -2 0 -6 -4
-9 -8z"/>
<path d="M5315 599 c-3 -4 2 -6 10 -5 21 3 28 13 10 13 -9 0 -18 -4 -20 -8z"/>
<path d="M5376 602 c-3 -4 4 -9 15 -9 23 -2 25 3 4 10 -8 4 -16 3 -19 -1z"/>
<path d="M5455 600 c-3 -5 -1 -10 4 -10 6 0 11 5 11 10 0 6 -2 10 -4 10 -3 0
-8 -4 -11 -10z"/>
<path d="M5235 560 c-3 -5 -1 -10 4 -10 6 0 11 5 11 10 0 6 -2 10 -4 10 -3 0
-8 -4 -11 -10z"/>
<path d="M4827 499 c7 -7 15 -10 18 -7 3 3 -2 9 -12 12 -14 6 -15 5 -6 -5z"/>
<path d="M7645 4690 c4 -6 11 -8 16 -5 14 9 11 15 -7 15 -8 0 -12 -5 -9 -10z"/>
<path d="M7830 3760 c0 -5 5 -10 11 -10 5 0 7 5 4 10 -3 6 -8 10 -11 10 -2 0
-4 -4 -4 -10z"/>
<path d="M7353 3212 c2 -12 6 -24 10 -28 3 -4 4 4 2 16 -6 30 -16 40 -12 12z"/>
<path d="M7418 3218 c-9 -5 -6 -7 9 -5 12 2 25 6 28 8 8 9 -23 6 -37 -3z"/>
<path d="M7507 3159 c4 -13 8 -18 11 -10 2 7 -1 18 -6 23 -8 8 -9 4 -5 -13z"/>
<path d="M3300 3000 c0 -5 5 -10 11 -10 5 0 7 5 4 10 -3 6 -8 10 -11 10 -2 0
-4 -4 -4 -10z"/>
<path d="M3691 2454 c0 -11 3 -14 6 -6 3 7 2 16 -1 19 -3 4 -6 -2 -5 -13z"/>
<path d="M4395 510 c3 -5 8 -10 11 -10 2 0 4 5 4 10 0 6 -5 10 -11 10 -5 0 -7
-4 -4 -10z"/>
<path d="M3150 459 c0 -5 5 -7 10 -4 6 3 10 8 10 11 0 2 -4 4 -10 4 -5 0 -10
-5 -10 -11z"/>
<path d="M4395 460 c3 -5 8 -10 11 -10 2 0 4 5 4 10 0 6 -5 10 -11 10 -5 0 -7
-4 -4 -10z"/>
<path d="M4426 458 c3 -4 11 -5 19 -1 21 7 19 12 -4 10 -11 0 -18 -5 -15 -9z"/>
<path d="M6155 440 c6 -30 16 -40 12 -12 -2 12 -6 24 -10 28 -3 4 -4 -4 -2
-16z"/>
<path d="M3826 438 c3 -5 10 -6 15 -3 13 9 11 12 -6 12 -8 0 -12 -4 -9 -9z"/>
<path d="M3317 419 c4 -13 8 -18 11 -10 2 7 -1 18 -6 23 -8 8 -9 4 -5 -13z"/>
<path d="M3711 431 c-8 -5 -9 -11 -3 -15 5 -3 12 1 16 9 6 17 6 18 -13 6z"/>
<path d="M3635 401 c-3 -5 -2 -12 3 -15 5 -3 9 1 9 9 0 17 -3 19 -12 6z"/>
<path d="M3286 383 c-6 -14 -5 -15 5 -6 7 7 10 15 7 18 -3 3 -9 -2 -12 -12z"/>
<path d="M5595 271 c5 -9 1 -19 -10 -28 -11 -7 -14 -13 -8 -13 6 0 16 7 23 15
11 13 11 18 0 28 -10 10 -11 9 -5 -2z"/>
<path d="M5490 239 c0 -5 5 -7 10 -4 6 3 10 8 10 11 0 2 -4 4 -10 4 -5 0 -10
-5 -10 -11z"/>
<path d="M5620 246 c0 -2 9 -6 20 -9 11 -3 20 -1 20 4 0 5 -9 9 -20 9 -11 0
-20 -2 -20 -4z"/>
<path d="M5610 219 c0 -5 5 -7 10 -4 6 3 10 8 10 11 0 2 -4 4 -10 4 -5 0 -10
-5 -10 -11z"/>
<path d="M5655 201 c-6 -11 13 -26 22 -17 4 3 1 6 -6 6 -7 0 -9 5 -6 10 3 6 4
10 1 10 -3 0 -7 -4 -11 -9z"/>
</g>
</svg>
